<svg viewBox="0 0 200 200" xmlns="http://www.w3.org/2000/svg">
  <!-- Fondo circular con gradiente -->
  <defs>
    <linearGradient id="bgGradient" x1="0%" y1="0%" x2="100%" y2="100%">
      <stop offset="0%" style="stop-color:#ff6b6b;stop-opacity:1" />
      <stop offset="100%" style="stop-color:#ee5a52;stop-opacity:1" />
    </linearGradient>
    
    <linearGradient id="cherryGradient" x1="0%" y1="0%" x2="100%" y2="100%">
      <stop offset="0%" style="stop-color:#ff4757;stop-opacity:1" />
      <stop offset="100%" style="stop-color:#c44569;stop-opacity:1" />
    </linearGradient>
    
    <linearGradient id="stemGradient" x1="0%" y1="0%" x2="100%" y2="100%">
      <stop offset="0%" style="stop-color:#2ed573;stop-opacity:1" />
      <stop offset="100%" style="stop-color:#1e824c;stop-opacity:1" />
    </linearGradient>
    
    <!-- Sombra -->
    <filter id="shadow" x="-50%" y="-50%" width="200%" height="200%">
      <feDropShadow dx="0" dy="4" stdDeviation="8" flood-color="rgba(0,0,0,0.15)"/>
    </filter>
  </defs>
  
  <!-- Círculo de fondo -->
  <circle cx="100" cy="100" r="85" fill="url(#bgGradient)" filter="url(#shadow)"/>
  
  <!-- Tallos -->
  <path d="M 80 70 Q 75 60 70 50" stroke="url(#stemGradient)" stroke-width="4" fill="none" stroke-linecap="round"/>
  <path d="M 120 70 Q 125 60 130 50" stroke="url(#stemGradient)" stroke-width="4" fill="none" stroke-linecap="round"/>
  
  <!-- Hojas pequeñas -->
  <ellipse cx="72" cy="55" rx="8" ry="4" fill="#2ed573" transform="rotate(-30 72 55)"/>
  <ellipse cx="128" cy="55" rx="8" ry="4" fill="#2ed573" transform="rotate(30 128 55)"/>
  
  <!-- Cereza izquierda -->
  <circle cx="80" cy="100" r="28" fill="url(#cherryGradient)"/>
  
  <!-- Cereza derecha -->
  <circle cx="120" cy="100" r="28" fill="url(#cherryGradient)"/>
  
  <!-- Brillo en cerezas -->
  <ellipse cx="75" cy="90" rx="8" ry="12" fill="#ff8a80" opacity="0.6"/>
  <ellipse cx="115" cy="90" rx="8" ry="12" fill="#ff8a80" opacity="0.6"/>
  
  <!-- Puntos de luz pequeños -->
  <circle cx="70" cy="85" r="3" fill="#ffffff" opacity="0.8"/>
  <circle cx="110" cy="85" r="3" fill="#ffffff" opacity="0.8"/>
  
  <!-- Decoración adicional - círculos pequeños -->
  <circle cx="50" cy="130" r="2" fill="#ffffff" opacity="0.4"/>
  <circle cx="150" cy="130" r="2" fill="#ffffff" opacity="0.4"/>
  <circle cx="100" cy="160" r="1.5" fill="#ffffff" opacity="0.3"/>
</svg>